<?xml version="1.0" encoding="UTF-8"?>
<svg version="1.1" viewBox="0 0 16 19" xmlns="http://www.w3.org/2000/svg">
<title>linux - FontAwesome</title>
<desc>Created with Sketch.</desc>
<g fill="none" fill-rule="evenodd">
<g transform="translate(-1092 -768)" fill="#192A39">
<g transform="translate(0 473)">
<g transform="translate(215 152)">
<g transform="translate(800)">
<g transform="translate(25 143)">
<path d="m58.66 4.6998c-0.073661 0.0066965-0.12556 0.041852-0.15569 0.10547-0.030134 0.063616-0.058594 0.095424-0.085379 0.095424-0.033482 0.0066965-0.050223-0.010044-0.050223-0.050223 0-0.080358 0.063615-0.13058 0.19085-0.15067h0.10045zm0.87388 0.14062c-0.026786 0.0066965-0.06529-0.015067-0.11551-0.06529-0.050224-0.050223-0.10882-0.06529-0.17578-0.045201 0.16072-0.073661 0.26786-0.066965 0.32143 0.020089 0.020089 0.040179 0.010045 0.070312-0.030134 0.090402zm-3.5257 4.2891c-0.026786-0.0066965-0.046875 0.0033481-0.060268 0.030134-0.013393 0.026786-0.02846 0.068638-0.045201 0.12556-0.016741 0.05692-0.035156 0.10212-0.055246 0.1356s-0.053571 0.077009-0.10045 0.13058c-0.066965 0.073661-0.070313 0.11384-0.010045 0.12054 0.026786 0.0066965 0.068638-0.016741 0.12556-0.070312s0.098772-0.11384 0.12556-0.1808c0.0066965-0.020089 0.013393-0.043527 0.020089-0.070312s0.013393-0.046875 0.020089-0.060268c0.0066964-0.013393 0.011719-0.02846 0.015067-0.045201 0.0033482-0.016741 0.0050223-0.030134 0.0050223-0.040179v-0.030134c0-0.010045-0.0033482-0.018415-0.010045-0.025112-0.0066964-0.0066965-0.016741-0.013393-0.030134-0.020089zm8.5882 3.606c0-0.12054-0.18415-0.26116-0.55246-0.42188 0.026786-0.10045 0.051897-0.19252 0.075335-0.27623s0.040178-0.17076 0.050223-0.26116c0.010045-0.090402 0.020089-0.16239 0.030134-0.21596 0.010045-0.053572 0.011719-0.12891 0.0050223-0.226-0.0066965-0.097099-0.010045-0.16239-0.010045-0.19587 0-0.033482-0.011719-0.10714-0.035156-0.22098-0.023438-0.11384-0.03683-0.18248-0.040179-0.20592-0.0033482-0.023438-0.020089-0.10714-0.050223-0.25112-0.030134-0.14397-0.048549-0.2327-0.055246-0.26618-0.066965-0.32143-0.22433-0.66629-0.4721-1.0346-0.24777-0.36831-0.48884-0.61942-0.72321-0.75335 0.16072 0.13393 0.35156 0.41183 0.57254 0.83371 0.58259 1.0848 0.76339 2.0156 0.54241 2.7924-0.073661 0.26786-0.24107 0.40848-0.50223 0.42188-0.20759 0.026786-0.3365-0.035156-0.38672-0.18583-0.050223-0.15067-0.077009-0.43024-0.080357-0.83873-0.0033483-0.40848-0.041852-0.76674-0.11551-1.0748-0.060268-0.26116-0.12556-0.49219-0.19587-0.69308-0.070313-0.20089-0.1356-0.35324-0.19587-0.45703-0.060268-0.1038-0.11216-0.18583-0.15569-0.24609-0.043527-0.060268-0.087053-0.11049-0.13058-0.15067-0.043527-0.040179-0.068638-0.063616-0.075335-0.070312-0.09375-0.41518-0.19754-0.76004-0.31138-1.0346-0.11384-0.27455-0.21261-0.46205-0.29632-0.5625s-0.16239-0.21094-0.23605-0.33147c-0.073661-0.12054-0.12388-0.25446-0.15067-0.40179-0.026786-0.14063-0.0066967-0.31975 0.060268-0.53739s0.082031-0.38337 0.045201-0.49721c-0.036831-0.11384-0.18582-0.19754-0.44699-0.25112-0.10045-0.020089-0.24944-0.080357-0.44699-0.1808-0.19755-0.10045-0.31641-0.15402-0.35658-0.16071-0.053572-0.0066965-0.090402-0.093749-0.11049-0.26116-0.020089-0.16741 0.006696-0.33817 0.080357-0.51228s0.1942-0.26451 0.36161-0.27121c0.24777-0.020089 0.41853 0.080356 0.51228 0.30134 0.09375 0.22098 0.10714 0.41518 0.040179 0.58259-0.073661 0.12723-0.080357 0.21596-0.020089 0.26618 0.060268 0.050223 0.16071 0.051898 0.30134 0.0050223 0.087054-0.026786 0.13058-0.14732 0.13058-0.36161v-0.37165c-0.033482-0.20089-0.078683-0.3683-0.1356-0.50223s-0.12723-0.23605-0.21094-0.30636-0.16239-0.12054-0.23605-0.15067-0.16406-0.055245-0.27121-0.075335c-0.71652 0.053572-1.0145 0.50223-0.89397 1.346 0 0.10045-0.0033482 0.15067-0.010045 0.15067-0.060268-0.060268-0.15904-0.095424-0.29632-0.10547-0.13728-0.010045-0.24777-0.0083706-0.33147 0.0050223-0.083706 0.013393-0.1356-0.003348-0.15569-0.050223 0.0066965-0.3817-0.046874-0.68303-0.16071-0.90402-0.11384-0.22098-0.26451-0.33482-0.45201-0.34152-0.1808-0.0066965-0.31975 0.085379-0.41685 0.27623-0.097099 0.19085-0.15234 0.39007-0.16574 0.59766-0.0066964 0.10045 0.0050222 0.22433 0.035156 0.37165s0.07366 0.27288 0.13058 0.37667c0.05692 0.1038 0.10882 0.149 0.15569 0.1356 0.066965-0.020089 0.12054-0.066964 0.16071-0.14062 0.026786-0.060268 0.0033486-0.087054-0.070312-0.080357-0.046875 0-0.098772-0.048549-0.15569-0.14565s-0.088728-0.20926-0.095424-0.3365c-0.0066964-0.14732 0.023437-0.2712 0.090402-0.37165s0.1808-0.14732 0.34152-0.14062c0.11384 0 0.20424 0.070312 0.27121 0.21094s0.098772 0.2712 0.095424 0.39174c-0.0033482 0.12054-0.0083705 0.1942-0.015067 0.22098-0.14732 0.10045-0.25112 0.19754-0.31138 0.29129-0.053572 0.080358-0.14565 0.15904-0.27623 0.23605-0.13058 0.077009-0.19922 0.11886-0.20592 0.12556-0.087054 0.09375-0.13895 0.18415-0.15569 0.27121-0.016741 0.087054 0.0083702 0.14732 0.075335 0.1808 0.09375 0.053572 0.17746 0.11886 0.25112 0.19587 0.073661 0.077009 0.12723 0.14062 0.16071 0.19085 0.033482 0.050223 0.095424 0.09375 0.18583 0.13058 0.090402 0.036831 0.20926 0.058594 0.35658 0.06529 0.31473 0.013393 0.65625-0.03683 1.0246-0.15067 0.013393-0.0066965 0.090401-0.030134 0.23103-0.070312s0.25614-0.075335 0.34654-0.10547c0.090402-0.030134 0.18917-0.07366 0.29632-0.13058 0.10714-0.05692 0.17746-0.11551 0.21094-0.17578 0.060268-0.09375 0.12723-0.12054 0.20089-0.080357 0.033482 0.020089 0.055245 0.048549 0.06529 0.085379 0.010045 0.036831 2e-7 0.077009-0.030134 0.12054s-0.085379 0.075335-0.16574 0.095424c-0.13393 0.040179-0.3231 0.11216-0.56752 0.21596-0.24442 0.1038-0.39676 0.16908-0.45703 0.19587-0.29464 0.12723-0.52902 0.20424-0.70312 0.23103-0.16741 0.033482-0.43192 0.026786-0.79353-0.020089-0.066965-0.013393-0.097098-0.0066966-0.090402 0.020089 0.0066964 0.026786 0.063616 0.090401 0.17076 0.19085 0.16741 0.15402 0.39174 0.22768 0.67299 0.22098 0.11384-0.0066965 0.23437-0.030134 0.36161-0.070312 0.12723-0.040179 0.24777-0.087053 0.36161-0.14062 0.11384-0.053572 0.226-0.11216 0.3365-0.17578s0.21094-0.12054 0.30134-0.17076c0.090402-0.050223 0.17243-0.090402 0.24609-0.12054 0.073661-0.030134 0.13225-0.038505 0.17578-0.025112 0.043527 0.013393 0.071986 0.050223 0.085379 0.11049 0 0.013393-0.0033482 0.02846-0.010045 0.045201-0.0066965 0.016741-0.020089 0.033482-0.040179 0.050223-0.020089 0.016741-0.040178 0.031808-0.060268 0.045201-0.020089 0.013393-0.048549 0.030134-0.08538 0.050223-0.03683 0.020089-0.066964 0.035156-0.090402 0.045201-0.023438 0.010045-0.056919 0.026786-0.10045 0.050223s-0.075335 0.038504-0.095424 0.045201c-0.1875 0.09375-0.4135 0.24107-0.67801 0.44196-0.26451 0.20089-0.48716 0.34487-0.66797 0.43192-0.1808 0.087054-0.34487 0.090402-0.49219 0.010045-0.14063-0.073661-0.35156-0.31808-0.63281-0.73326-0.14732-0.20759-0.23103-0.28125-0.25112-0.22098-0.0066965 0.020089-0.010045 0.053571-0.010045 0.10045 0 0.16741-0.050223 0.35658-0.15067 0.56752-0.10045 0.21094-0.19922 0.39676-0.29632 0.55748s-0.16741 0.35491-0.21094 0.58259-0.0050229 0.43862 0.11551 0.63281c-0.15402 0.040179-0.36328 0.34152-0.62779 0.90402-0.26451 0.5625-0.42355 1.0346-0.47712 1.4163-0.013393 0.12054-0.018415 0.35156-0.015067 0.69308 0.0033483 0.34152-0.015067 0.53906-0.055246 0.59263-0.053572 0.16072-0.15067 0.17076-0.29129 0.030134-0.21429-0.20759-0.33482-0.52232-0.36161-0.9442-0.013393-0.1875-2e-7 -0.375 0.040179-0.5625 0.026786-0.12723 0.023438-0.1875-0.010045-0.1808-0.013393 0.0066964-0.026786 0.023437-0.040178 0.050223-0.24107 0.43527-0.20759 0.99107 0.10045 1.6674 0.033482 0.080358 0.11719 0.17411 0.25112 0.28125 0.13393 0.10714 0.21429 0.17411 0.24107 0.20089 0.13393 0.15402 0.48214 0.45703 1.0446 0.90904 0.5625 0.45201 0.87388 0.70815 0.93415 0.76842 0.10714 0.10045 0.16574 0.22768 0.17578 0.3817 0.010045 0.15402-0.03683 0.29799-0.14062 0.43192-0.1038 0.13393-0.25614 0.21094-0.45703 0.23103 0.053572 0.10045 0.15067 0.24944 0.29129 0.44699 0.14063 0.19755 0.23437 0.37835 0.28125 0.54241 0.046875 0.16406 0.070312 0.40011 0.070312 0.70815 0.30804-0.16072 0.33147-0.46875 0.070312-0.92411-0.026786-0.053572-0.061942-0.10714-0.10547-0.16071s-0.075335-0.09375-0.095424-0.12054c-0.020089-0.026786-0.026786-0.046875-0.020089-0.060268 0.020089-0.033482 0.063616-0.06529 0.13058-0.095424s0.13393-0.021764 0.20089 0.025112c0.30804 0.34822 0.86384 0.46875 1.6674 0.36161 0.89063-0.10045 1.4833-0.39174 1.7779-0.87388 0.15402-0.25447 0.26786-0.35491 0.34152-0.30134 0.080358 0.040179 0.11384 0.21428 0.10045 0.52232-0.0066964 0.16741-0.083705 0.47544-0.23103 0.92411-0.060268 0.15402-0.080357 0.27958-0.060268 0.37667s0.10045 0.149 0.24107 0.15569c0.020089-0.12723 0.068638-0.38504 0.14565-0.77344s0.12221-0.68973 0.1356-0.90402c0.013393-0.14063-0.0083702-0.38672-0.06529-0.73828-0.05692-0.35156-0.082031-0.67634-0.075335-0.97433 0.0066965-0.29799 0.083705-0.53404 0.23103-0.70815 0.10045-0.12054 0.2712-0.1808 0.51228-0.1808 0.0066964-0.24777 0.12221-0.42522 0.34654-0.53237 0.22433-0.10714 0.46707-0.1423 0.72824-0.10547s0.46205 0.11216 0.60268 0.226zm-6.308-8.3069c0.020089-0.11384 0.011719-0.21429-0.025112-0.30134-0.03683-0.087054-0.075335-0.13728-0.11551-0.15067-0.060268-0.013393-0.090402 0.010044-0.090402 0.070312 0.013393 0.033482 0.030134 0.053571 0.050223 0.060268 0.066965 0 0.090402 0.050223 0.070312 0.15067-0.020089 0.13393 0.006696 0.20089 0.080357 0.20089 0.020089 0 0.030134-0.010045 0.030134-0.030134zm4.2087 1.9788c-0.013393-0.053572-0.035156-0.092076-0.06529-0.11551s-0.07366-0.040179-0.13058-0.050223c-0.05692-0.010045-0.10547-0.02846-0.14565-0.055246-0.033482-0.020089-0.06529-0.046875-0.095424-0.080357s-0.053571-0.060268-0.070312-0.080357c-0.016741-0.020089-0.035156-0.041853-0.055246-0.06529-0.020089-0.023438-0.033482-0.03683-0.040179-0.040179-0.0066964-0.0033482-0.020089 0.001674-0.040179 0.015067-0.09375 0.10714-0.070313 0.25279 0.070312 0.43694s0.2712 0.28962 0.39174 0.31641c0.060268 0.0066965 0.10882-0.020089 0.14565-0.080357 0.036831-0.060268 0.048549-0.12723 0.035156-0.20089zm-1.7879-2.1395c0-0.073661-0.016741-0.13895-0.050223-0.19587-0.033482-0.05692-0.070312-0.098772-0.11049-0.12556-0.040179-0.026786-0.070312-0.03683-0.090402-0.030134-0.040179 0-0.066964 0.0066964-0.080357 0.020089-0.013393 0.013393-0.013393 0.026786 0 0.040179 0.013393 0.013393 0.030134 0.023437 0.050223 0.030134 0.09375 0.026786 0.15402 0.13058 0.1808 0.31138 0 0.020089 0.026786 0.013393 0.080357-0.020089 0.013393-0.013393 0.020089-0.023437 0.020089-0.030134zm0.54241-2.3404c0-0.013393-0.0083705-0.030134-0.025112-0.050223-0.016741-0.020089-0.046875-0.043527-0.090402-0.070312s-0.075335-0.046875-0.095424-0.060268c-0.10045-0.10045-0.1808-0.15067-0.24107-0.15067-0.060268 0.0066965-0.098772 0.031808-0.11551 0.075335-0.016741 0.043527-0.020089 0.087053-0.010045 0.13058s0.0083706 0.085379-0.0050223 0.12556c-0.0066965 0.026786-0.026786 0.061942-0.060268 0.10547-0.033482 0.043527-0.053571 0.073661-0.060268 0.090402-0.0066965 0.016741 0.0033481 0.045201 0.030134 0.085379 0.026786 0.020089 0.053571 0.020089 0.080357 0 0.026786-0.020089 0.063616-0.050223 0.11049-0.090402s0.097098-0.070312 0.15067-0.090402c0.0066964-0.0066965 0.03683-0.010045 0.090402-0.010045s0.10379-0.0066964 0.15067-0.020089c0.046875-0.013393 0.077009-0.03683 0.090402-0.070312zm5.6752 13.47c0.13393 0.080358 0.23772 0.16239 0.31138 0.24609s0.11384 0.16406 0.12054 0.24107c0.0066965 0.077009-0.001674 0.15234-0.025112 0.226s-0.075334 0.14732-0.15569 0.22098c-0.080358 0.073661-0.15904 0.13895-0.23605 0.19587-0.077009 0.05692-0.17745 0.11886-0.30134 0.18583-0.12388 0.066965-0.22935 0.12221-0.31641 0.16574-0.087054 0.043527-0.1942 0.095424-0.32143 0.15569-0.12723 0.060268-0.21763 0.10379-0.27121 0.13058-0.25447 0.12723-0.54074 0.31473-0.85882 0.5625-0.31808 0.24777-0.57087 0.46205-0.75837 0.64286-0.11384 0.10714-0.34152 0.17243-0.68304 0.19587-0.34152 0.023438-0.63951-0.025111-0.89397-0.14565-0.12054-0.060268-0.21931-0.13895-0.29632-0.23605s-0.13225-0.18248-0.16574-0.25614-0.10714-0.13895-0.22098-0.19587c-0.11384-0.05692-0.2712-0.088728-0.4721-0.095424-0.29464-0.0066965-0.72991-0.010045-1.3058-0.010045-0.12723 0-0.31808 0.0050223-0.57254 0.015067-0.25447 0.010045-0.44866 0.018415-0.58259 0.025112-0.29464 0.0066965-0.56082 0.056919-0.79855 0.15067-0.23772 0.09375-0.41685 0.1942-0.53739 0.30134s-0.26618 0.20257-0.43694 0.28627c-0.17076 0.083706-0.34989 0.12221-0.53739 0.11551-0.1942-0.0066965-0.56585-0.11049-1.115-0.31138-0.54911-0.20089-1.0379-0.34487-1.4665-0.43192-0.12723-0.026786-0.29799-0.058594-0.51228-0.095424-0.21429-0.036831-0.3817-0.066964-0.50223-0.090402s-0.25279-0.055245-0.39676-0.095424c-0.14397-0.040179-0.25614-0.088727-0.3365-0.14565-0.080358-0.05692-0.13728-0.12221-0.17076-0.19587-0.066965-0.15402-0.043527-0.37667 0.070312-0.66797 0.11384-0.2913 0.17411-0.47377 0.1808-0.54743 0.0066965-0.10714-0.0066962-0.24107-0.040178-0.40179s-0.066964-0.30301-0.10045-0.4269c-0.033482-0.12388-0.048549-0.24609-0.045201-0.36663 0.0033483-0.12054 0.038504-0.21094 0.10547-0.27121 0.09375-0.080358 0.2846-0.12723 0.57254-0.14062 0.28795-0.013393 0.48884-0.053571 0.60268-0.12054 0.20089-0.12054 0.34152-0.23772 0.42188-0.35156 0.080358-0.11384 0.12054-0.2846 0.12054-0.51228 0.14063 0.48884 0.033484 0.84375-0.32143 1.0647-0.21429 0.13393-0.49219 0.18415-0.83371 0.15067-0.22768-0.020089-0.37165 0.013392-0.43192 0.10045-0.087054 0.10045-0.070313 0.29129 0.050223 0.57254 0.013393 0.040179 0.040178 0.10045 0.080357 0.1808 0.040179 0.080358 0.068638 0.14062 0.08538 0.1808 0.016741 0.040179 0.031808 0.097098 0.045201 0.17076 0.013393 0.073661 0.016741 0.14732 0.010045 0.22098 0 0.10045-0.056919 0.26451-0.17076 0.49219-0.11384 0.22768-0.16071 0.38839-0.14062 0.48214 0.020089 0.11384 0.14397 0.20089 0.37165 0.26116 0.13393 0.040179 0.41685 0.10212 0.84877 0.18583s0.76507 0.15234 0.99944 0.20592c0.16072 0.040179 0.40848 0.11384 0.7433 0.22098s0.61105 0.18415 0.82868 0.23103c0.21764 0.046875 0.40346 0.060268 0.55748 0.040179 0.28795-0.040179 0.50391-0.13393 0.64788-0.28125s0.22098-0.30803 0.23103-0.48214c0.010045-0.17411-0.015067-0.36998-0.075335-0.58761-0.060268-0.21764-0.12388-0.39174-0.19085-0.52232-0.066965-0.13058-0.13393-0.25279-0.20089-0.36663-0.81027-1.2723-1.3761-2.0826-1.6975-2.4308-0.45536-0.49554-0.8337-0.62947-1.135-0.40179-0.073661 0.060268-0.12388 0.010045-0.15067-0.15067-0.020089-0.10714-0.026786-0.23437-0.020089-0.3817 0.0066964-0.1942 0.040178-0.3683 0.10045-0.52232 0.060268-0.15402 0.14062-0.31138 0.24107-0.4721 0.10045-0.16072 0.17411-0.30134 0.22098-0.42188 0.053572-0.14063 0.1423-0.38169 0.26618-0.72321 0.12388-0.34152 0.22266-0.60268 0.29632-0.78348 0.073661-0.1808 0.17411-0.38504 0.30134-0.61272s0.25781-0.40848 0.39174-0.54241c0.73661-0.95759 1.1518-1.6105 1.2455-1.9587-0.080358-0.75-0.13393-1.7879-0.16071-3.1138-0.013393-0.60268 0.066963-1.1099 0.24107-1.5218s0.52902-0.76172 1.0647-1.0497c0.26116-0.14063 0.60937-0.21094 1.0446-0.21094 0.35491-0.0066965 0.70982 0.038504 1.0647 0.1356 0.35491 0.097099 0.6529 0.23605 0.89397 0.41685 0.3817 0.28125 0.68806 0.68806 0.91908 1.2204 0.23103 0.53237 0.3298 1.0262 0.29632 1.4816-0.033482 0.63616 0.066963 1.3527 0.30134 2.1496 0.22768 0.7567 0.67299 1.4866 1.3359 2.1897 0.36831 0.39509 0.70145 0.94084 0.99944 1.6373 0.29799 0.69643 0.49721 1.3359 0.59766 1.9185 0.053572 0.32813 0.070313 0.61105 0.050223 0.84877-0.020089 0.23772-0.060268 0.42355-0.12054 0.55748-0.060268 0.13393-0.12723 0.20759-0.20089 0.22098-0.066965 0.013393-0.14565 0.077008-0.23605 0.19085-0.090402 0.11384-0.1808 0.2327-0.27121 0.35658-0.090402 0.12388-0.226 0.23605-0.40681 0.3365-0.1808 0.10045-0.38504 0.14732-0.61272 0.14062-0.12054-0.0066965-0.226-0.023437-0.31641-0.050223-0.090402-0.026786-0.16574-0.071986-0.226-0.1356-0.060268-0.063616-0.10547-0.11551-0.1356-0.15569s-0.068638-0.10882-0.11551-0.20592-0.077009-0.16239-0.090402-0.19587c-0.14732-0.24777-0.2846-0.34821-0.41183-0.30134-0.12723 0.046875-0.22098 0.21094-0.28125 0.49219-0.060268 0.28125-0.036831 0.60602 0.070312 0.97433 0.13393 0.46875 0.13728 1.1216 0.010045 1.9587-0.066965 0.43527-0.0066974 0.77176 0.1808 1.0095 0.1875 0.23772 0.43192 0.34821 0.73326 0.33147 0.30134-0.016741 0.58594-0.1356 0.85379-0.35658 0.39509-0.32813 0.69475-0.55078 0.899-0.66797s0.55078-0.25949 1.0396-0.4269c0.35491-0.12054 0.61272-0.24274 0.77344-0.36663 0.16072-0.12388 0.22266-0.2394 0.18583-0.34654s-0.12054-0.20257-0.25112-0.28627-0.30301-0.16239-0.5173-0.23605c-0.22098-0.073661-0.38672-0.23437-0.49721-0.48214s-0.16071-0.49051-0.15067-0.72824c0.010045-0.23772 0.061941-0.39676 0.15569-0.47712 0.0066965 0.20759 0.033482 0.39676 0.080357 0.56752 0.046875 0.17076 0.095424 0.30636 0.14565 0.40681 0.050223 0.10045 0.11886 0.19587 0.20592 0.28627 0.087054 0.090402 0.15737 0.15402 0.21094 0.19085 0.053572 0.03683 0.12556 0.080357 0.21596 0.13058 0.090402 0.050224 0.14565 0.082031 0.16574 0.095424z"/>
</g>
</g>
</g>
</g>
</g>
</g>
</svg>
